<svg xmlns="http://www.w3.org/2000/svg" xmlns:xlink="http://www.w3.org/1999/xlink" viewBox="0 0 512 512"><path d="M469.15 104.457H.037v294.88a7.54 7.54 0 0 0 .001.398c.403 14.877 6.498 28.798 17.16 39.2C27.887 449.36 41.995 455.1 56.928 455.1H304.7a7.52 7.52 0 0 0 5.314-2.2l164.44-164.44c1.41-1.4 2.2-3.32 2.2-5.314V111.97c0-4.15-3.365-7.514-7.515-7.514z" fill="#e0e0e2"/><path d="M135.96 300.952h30.708l24.623-77.27 119.227-119.226h-28.055L163.236 223.683zm333.2-196.495H444.1v214.367l30.363-30.363c1.4-1.4 2.2-3.32 2.2-5.314V111.97c.001-4.15-3.364-7.514-7.514-7.514z" fill="#c6c5ca"/><path d="M342.406 307.108H134.292c-4.15 0-7.515-3.364-7.515-7.515s3.365-7.515 7.515-7.515h208.114c4.15 0 7.515 3.364 7.515 7.515s-3.365 7.515-7.515 7.515z" fill="#3c5156"/><path d="M57.108 339.768a58.02 58.02 0 0 1 9.512.795V30.112c0-4.15-3.365-7.515-7.515-7.515C26.515 22.597 0 49.11 0 81.702v307.793c3.87-28.09 27.956-49.727 57.108-49.727z" fill="#919191"/><path d="M407.952 97.286l-45.13-45.132c-1.4-1.41-3.32-2.2-5.314-2.2a7.52 7.52 0 0 0-5.314 2.2l-166.5 166.528 56.57 54.917L407.95 107.914c2.936-2.936 2.936-7.693.001-10.628z" fill="#ffd039"/><path d="M221.62 253.558l20.645 20.042L407.95 107.915c2.935-2.936 2.935-7.693 0-10.628l-15.04-15.04-171.293 171.3z" fill="#ffa304"/><path d="M185.714 218.7c-.665.73-1.195 1.59-1.535 2.553l-24.598 69.683c-.963 2.73-.274 5.768 1.772 7.815 1.434 1.434 3.355 2.2 5.314 2.2.84 0 1.683-.14 2.5-.43l69.682-24.598a7.5 7.5 0 0 0 3.348-2.391L185.714 218.7z" fill="#ffc89f"/><path d="M166.668 300.952c.84 0 1.683-.14 2.5-.43l69.682-24.598a7.5 7.5 0 0 0 3.348-2.391l-20.603-20-55.87 19.995-6.145 17.407c-.963 2.73-.274 5.768 1.772 7.815a7.51 7.51 0 0 0 5.314 2.202z" fill="#f7b081"/><path d="M166.668 300.952c.84 0 1.683-.14 2.5-.43l43.944-15.512-38.1-37.817-15.44 43.74c-.963 2.73-.274 5.768 1.772 7.815 1.433 1.435 3.353 2.202 5.313 2.202z" fill="#3c5156"/><path d="M192.056 264.106l-26.33 9.423-6.145 17.407c-.963 2.73-.274 5.768 1.772 7.815 1.434 1.434 3.355 2.2 5.314 2.2.84 0 1.683-.14 2.5-.43L213.113 285l-21.057-20.904z" fill="#304144"/><path d="M432.37 72.868l-45.132-45.13a7.52 7.52 0 0 0-10.628 0l-29.7 29.7 55.737 55.783 29.733-29.733c1.41-1.4 2.2-3.32 2.2-5.314s-.792-3.904-2.2-5.315z" fill="#ff6137"/><path d="M382.3 92.868l20.35 20.356 29.728-29.728c1.41-1.4 2.2-3.32 2.2-5.314a7.52 7.52 0 0 0-2.2-5.314l-15.04-15.04-35.04 35.04z" fill="#e04f32"/><path d="M452.574 30.885L429.22 7.53c-4.327-4.327-10.083-6.7-16.203-6.7s-11.875 2.383-16.203 6.7l-25.62 25.62 55.863 55.657 25.518-25.52c4.327-4.327 6.7-10.083 6.7-16.203s-2.382-11.874-6.71-16.202z" fill="#546f7a"/><path d="M371.285 33.06l-.092.092 16.667 16.604zm81.29-2.175l-18.43-18.43c3.014 4.006 4.668 8.86 4.668 13.98 0 6.188-2.383 12.006-6.7 16.383l-25.414 25.7 20.37 20.295 25.518-25.52c4.327-4.327 6.7-10.083 6.7-16.203a22.77 22.77 0 0 0-6.712-16.204z" fill="#475d63"/><path d="M507.36 240.868c-2.808-1.164-6.04-.52-8.2 1.628L243.317 498.35c-2.15 2.15-2.792 5.382-1.63 8.2s3.904 4.64 6.943 4.64h255.855c4.15 0 7.515-3.364 7.515-7.515V247.81a7.52 7.52 0 0 0-4.64-6.943zM368.032 450.39l82.126-82.126v82.126h-82.126z" fill="#ffca10"/><path d="M507.36 240.868c-2.808-1.164-6.04-.52-8.2 1.628l-19.736 19.736V511.18h25.05c4.15 0 7.515-3.364 7.515-7.515V247.81c.001-3.04-1.83-5.78-4.638-6.943z" fill="#ffa304"/><g fill="#c96e14"><use xlink:href="#B"/><use xlink:href="#B" y="37.677"/><use xlink:href="#B" y="75.349"/><path d="M512 445.278h-28.894c-4.15 0-7.515 3.365-7.515 7.515s3.364 7.515 7.515 7.515H512v-15.03z"/></g><defs ><path id="B" d="M512 332.253h-28.894c-4.15 0-7.515 3.364-7.515 7.515s3.364 7.515 7.515 7.515H512v-15.03z"/></defs></svg>