<svg xmlns="http://www.w3.org/2000/svg" width="722.846" height="701.966"><path d="M358.987 10.06c-6.213.313-12.3 1.854-17.906 4.53L96.737 131.342c-12.81 6.118-22.116 17.69-25.28 31.438l-60.28 262.25c-2.812 12.207-.524 25.024 6.344 35.53a46.35 46.35 0 0 0 2.656 3.688L189.3 674.53c8.868 11.022 22.313 17.44 36.53 17.438l271.22-.062c14.212.01 27.657-6.396 36.53-17.406l169.063-210.313c8.873-11.028 12.197-25.464 9.03-39.22L651.3 162.717c-3.165-13.748-12.47-25.32-25.28-31.437L381.643 14.592c-7.05-3.368-14.84-4.926-22.656-4.53z" fill="#326ce5"/><path d="M361.408 99.308c-8.077.001-14.626 7.276-14.625 16.25 0 .138.028.27.03.406-.012 1.22-.07 2.688-.03 3.75.193 5.176 1.32 9.137 2 13.906 1.23 10.207 2.26 18.667 1.625 26.53-.62 2.965-2.803 5.677-4.75 7.563l-.344 6.188c-8.777.727-17.612 2.06-26.437 4.063-37.975 8.622-70.67 28.183-95.562 54.594-1.615-1.102-4.44-3.13-5.28-3.75-2.61.353-5.25 1.158-8.687-.844-6.545-4.406-12.506-10.487-19.72-17.812-3.305-3.504-5.698-6.84-9.625-10.22-.892-.767-2.253-1.805-3.25-2.594-3.07-2.448-6.69-3.724-10.187-3.844-4.496-.154-8.824 1.604-11.656 5.156-5.035 6.315-3.423 15.968 3.594 21.563.07.057.147.1.22.156.964.782 2.145 1.783 3.03 2.438 4.167 3.077 7.973 4.65 12.125 7.094 8.747 5.402 15.998 9.88 21.75 15.28 2.246 2.394 2.64 6.613 2.938 8.438l4.688 4.188c-25.093 37.764-36.707 84.41-29.844 131.938l-6.125 1.78c-1.614 2.085-3.895 5.365-6.28 6.344-7.525 2.37-15.994 3.24-26.22 4.313-4.8.4-8.942.16-14.03 1.125-1.12.212-2.68.62-3.906.906-.043.01-.082.022-.125.03-.067.015-.155.048-.22.063-8.62 2.083-14.158 10.006-12.375 17.813S114.33 434.677 123 432.808c.063-.014.154-.017.22-.03.098-.022.184-.07.28-.094 1.21-.265 2.724-.56 3.78-.844 5.003-1.34 8.627-3.308 13.125-5.03 9.677-3.47 17.692-6.37 25.5-7.5 3.26-.255 6.697 2.012 8.406 2.97l6.375-1.094c14.67 45.483 45.414 82.245 84.344 105.312l-2.656 6.375c.957 2.475 2.013 5.825 1.3 8.27-2.84 7.36-7.7 15.13-13.238 23.793-2.68 4.002-5.425 7.108-7.844 11.688-.58 1.096-1.316 2.78-1.875 3.938-3.76 8.042-1.002 17.305 6.22 20.78 7.266 3.498 16.284-.19 20.187-8.25.006-.01.026-.02.03-.03s-.004-.023 0-.03c.556-1.143 1.344-2.644 1.813-3.72 2.072-4.747 2.762-8.815 4.22-13.406 3.87-9.72 5.996-19.92 11.323-26.274 1.46-1.74 3.837-2.41 6.302-3.07l3.313-6c33.938 13.027 71.927 16.522 109.875 7.906a189.77 189.77 0 0 0 25.094-7.562l3.125 5.625c2.506.815 5.24 1.236 7.47 4.53 3.985 6.81 6.71 14.864 10.03 24.594 1.457 4.59 2.178 8.66 4.25 13.406.472 1.082 1.256 2.605 1.813 3.75 3.895 8.085 12.942 11.787 20.22 8.28 7.22-3.478 9.98-12.74 6.22-20.78l-1.906-3.937c-2.42-4.58-5.163-7.654-7.844-11.656-5.537-8.662-10.13-15.858-12.97-23.22-1.187-3.797.2-6.158 1.125-8.625-.554-.635-1.74-4.22-2.437-5.906 40.457-23.888 70.3-62.02 84.313-106.062 1.892.297 5.182.88 6.25 1.094 2.2-1.45 4.222-3.344 8.188-3.03 7.808 1.13 15.823 4.03 25.5 7.5 4.498 1.723 8.122 3.723 13.125 5.063 1.057.283 2.572.547 3.78.813.097.024.183.07.28.094.065.015.156.017.22.03 8.672 1.867 17.094-2.88 18.875-10.687s-3.754-15.732-12.375-17.812c-1.254-.285-3.032-.77-4.25-1-5.09-.964-9.23-.726-14.03-1.125-10.225-1.07-18.693-1.943-26.22-4.312-3.068-1.2-5.25-4.84-6.313-6.344l-5.906-1.72c3.062-22.154 2.237-45.21-3.062-68.28-5.348-23.285-14.8-44.58-27.406-63.344l5.188-4.656c.237-2.624.033-5.376 2.75-8.28 5.75-5.4 13.003-9.88 21.75-15.28 4.152-2.443 8-4.017 12.156-7.094.942-.696 2.23-1.798 3.22-2.594 7.015-5.596 8.63-15.248 3.594-21.562s-14.797-6.91-21.812-1.312c-1 .79-2.354 1.823-3.25 2.594-3.927 3.378-6.35 6.714-9.656 10.22-7.212 7.326-13.174 13.438-19.72 17.844-2.836 1.65-7 1.08-8.875.97l-5.562 3.97c-31.72-33.26-74.905-54.525-121.406-58.656l-.344-6.53c-1.904-1.822-4.203-3.377-4.78-7.312-.636-7.864.426-16.325 1.656-26.53.68-4.77 1.807-8.73 2-13.906.044-1.177-.026-2.884-.03-4.156-.001-8.974-6.548-16.25-14.625-16.25zm-18.312 113.438l-4.344 76.72-.312.156c-.29 6.863-5.94 12.344-12.875 12.344a12.82 12.82 0 0 1-7.594-2.469l-.125.063-62.906-44.594c19.334-19.01 44.063-33.06 72.562-39.53 5.206-1.182 10.4-2.06 15.594-2.687zm36.656 0c33.273 4.092 64.045 19.16 87.625 42.25l-62.5 44.313-.22-.094a12.91 12.91 0 0 1-17.687-2.375c-1.77-2.22-2.7-4.832-2.812-7.47l-.062-.03zM232.126 283.62l57.437 51.375-.062.313a12.88 12.88 0 0 1 1.625 17.75 12.89 12.89 0 0 1-6.687 4.406l-.062.25-73.625 21.25c-3.747-34.265 4.33-67.574 21.375-95.344zm258.156.03c8.534 13.833 14.997 29.282 18.844 46.03 3.8 16.548 4.755 33.067 3.188 49.03l-74-21.312-.062-.312c-6.626-1.81-10.7-8.552-9.156-15.312.632-2.77 2.102-5.113 4.094-6.844l-.03-.156 57.125-51.125zm-140.656 55.313h23.53l14.625 18.28-5.25 22.813-21.125 10.156-21.187-10.187-5.25-22.812zm75.438 62.563a12.83 12.83 0 0 1 2.969.219l.125-.156 76.156 12.875c-11.145 31.313-32.473 58.44-60.97 76.594l-29.562-71.406.094-.125c-2.716-6.3.002-13.7 6.25-16.72 1.6-.77 3.27-1.197 4.938-1.28zm-127.906.313a12.9 12.9 0 0 1 12.375 10.031 12.77 12.77 0 0 1-.719 7.938l.22.28-29.25 70.688c-27.347-17.55-49.13-43.824-60.78-76.062l75.5-12.812.125.156c.845-.155 1.7-.23 2.53-.22zm63.78 30.97c2.024-.074 4.08.34 6.03 1.28 2.56 1.233 4.537 3.173 5.78 5.5h.28l37.22 67.25c-4.83 1.62-9.796 3.003-14.875 4.156-28.465 6.463-56.84 4.505-82.53-4.25l37.125-67.125h.063a12.91 12.91 0 0 1 10.906-6.812z" fill="#fff" stroke="#fff" stroke-width=".25"/></svg>