<svg xmlns="http://www.w3.org/2000/svg" class="svg-inline" viewBox="0 0 128 128" aria-hidden="true" focusable="false" role="img"><path fill="#090" d="M118.98,29.12,68.02.92a9.24307,9.24307,0,0,0-8.04,0L9.02,29.12A8.47834,8.47834,0,0,0,5,35.8V92.2a8.46331,8.46331,0,0,0,4.02,6.68l50.96,28.2a9.24251,9.24251,0,0,0,8.04,0l50.96-28.2A8.46331,8.46331,0,0,0,123,92.2V35.8A8.47834,8.47834,0,0,0,118.98,29.12ZM95,89.18a9.8786,9.8786,0,0,1-6.34,9.21,9.67408,9.67408,0,0,1-10.77-2.82L52.45,65.59V88.93a9.72547,9.72547,0,1,1-19.45,0V39.03a9.85853,9.85853,0,0,1,6.34-9.21A9.57138,9.57138,0,0,1,42.72,29.21,9.67471,9.67471,0,0,1,50.11,32.64L75.55,62.62V38.82a9.72547,9.72547,0,1,1,19.45,0Z"/></svg>
